<svg xmlns="http://www.w3.org/2000/svg" width="300" height="250" viewBox="0 0 300 250">
  <g id="og-image" transform="translate(3577 246)">
    <rect id="Rectangle_30" data-name="Rectangle 30" width="300" height="250" transform="translate(-3577 -246)"/>
    <g id="logo_escuro" transform="translate(-4126.903 -2329)">
      <rect id="Rectangle_21" data-name="Rectangle 21" width="220" height="137" transform="translate(589 2139)"/>
      <g id="bikcraft" transform="translate(587 2138)">
        <path id="Path_8" data-name="Path 8" d="M9.282,10.348c3.529-.14,12.137-.422,16.513-1.411-.142,1.836-.425,7.481-.425,18.207v4.8C29.323,28.7,32.57,27,36.521,27a11.623,11.623,0,0,1,10.161,5.223,22.144,22.144,0,0,1,2.823,11.433c0,13.124-6.21,20.6-18.771,20.6a23.676,23.676,0,0,1-9.879-2.4c-1.694.565-3.952,1.694-6.21,2.4l-.707-.425c.142-3.812.142-11.008.142-20.747V25.026c0-4.516-.142-7.621-.282-10.3-.142-1.836-.565-2.118-4.8-2.118ZM30.734,61.579c4.8,0,7.056-5.787,7.056-16.513,0-4.374-.707-8.043-1.976-10.444A5.089,5.089,0,0,0,31.3,31.8a6.5,6.5,0,0,0-5.223,3.1c-.7.989-.987,1.836-.987,12.984,0,9.175.425,9.457.989,10.586A5.08,5.08,0,0,0,30.734,61.579ZM74.2,63.415c-2.965,0-5.927-.285-10.586-.285-4.938,0-7.339.285-9.737.285v-2.4c3.952-.142,4.516-.847,4.658-2.4.14-1.694.282-4.374.282-8.75V40.832c0-3.669,0-6.632-.142-7.9s-.707-1.694-4.376-1.551v-2.4c4.941-.422,10.868-.565,15.666-1.551-.142,1.836-.282,5.223-.282,12.984v9.739c0,4.516.142,6.492.282,8.468s.707,2.258,4.234,2.68ZM63.616,11.055c3.672,0,5.787,2.118,5.787,5.927,0,3.247-2.4,5.505-6.07,5.505a5.26,5.26,0,0,1-5.5-5.505,5.594,5.594,0,0,1,5.787-5.927Zm14.255-.707A104.066,104.066,0,0,0,93.255,8.937q-.286,8.747-.285,17.5V44.079c2.683-.707,8.468-7.763,10.726-11.855.425-.847.425-1.271-.7-1.271l-3.1-.282v-2.4c5.223.142,10.586-.142,15.949-.425v2.4c-3.952.425-5.505.707-7.059,1.976A66.035,66.035,0,0,0,102,39.281c1.694,3.529,8.752,16.513,11.433,20.04a3.934,3.934,0,0,0,3.529,1.694l1.974.142-.14,2.4a104.619,104.619,0,0,0-15.666.847c-1.694-3.952-6.774-13.548-8.325-16.513-.847-1.551-1.271-2.116-1.836-1.976,0,5.787-.14,8.61.142,12.7.142,1.836.565,2.4,4.376,2.54v2.4c-2.683,0-5.505-.282-10.161-.282-5.505,0-7.9.282-10.021.282v-2.4c3.669-.14,4.234-.845,4.376-2.258.14-1.694.28-5.363.28-12.7v-18.2c0-5.787,0-10.161-.14-13.831q0-1.27-1.694-1.271h-2.4ZM43.86,98.273c-2.4,7.621-7.056,11.29-14.82,11.29-6.634,0-10.868-1.836-13.831-5.787-2.258-2.963-3.387-7.339-3.387-12.277,0-10.868,6.634-19.194,18.771-19.194,7.339,0,12.7,3.387,12.7,8.892,0,3.809-3.1,5.361-5.645,5.361a6.4,6.4,0,0,1-2.823-.7,2.2,2.2,0,0,1-.989-2.54,21.26,21.26,0,0,0,.425-2.965c0-3.527-1.271-5.221-3.952-5.221-4.376,0-6.634,6.352-6.634,15.1,0,3.527.425,7.479,1.694,9.877,1.411,3.247,3.669,5.081,7.056,5.081,4.234,0,6.916-2.4,8.892-7.9Zm8.043-10.3a78.848,78.848,0,0,0-.425-9.881,1.487,1.487,0,0,0-1.694-1.409h-2.54v-2.4c4.234-.142,10.021-.425,14.113-1.694l.425.282c.282,1.694.565,5.787.707,8.328h.28c1.838-4.941,4.376-8.892,9.6-8.892a5.319,5.319,0,0,1,5.223,5.645c0,4.658-3.529,6.07-4.941,6.07s-2.4-.425-2.823-1.414c-.7-1.551-1.129-2.4-2.538-2.4-1.554,0-2.4,1.411-3.387,3.669a14.984,14.984,0,0,0-.707,5.081c0,8.045,0,12.562.142,14.537s.845,2.538,6.49,2.68l-.14,2.4c-3.952-.142-7.481-.285-11.573-.285-4.234,0-7.339.142-10.868.285l.422-2.4c3.387-.142,4.234-.565,4.234-1.976.142-1.976.282-5.787.282-10.161v-6.07H51.9ZM99.747,81.48c0-4.236-1.414-6.494-4.236-6.494-3.245,0-4.8,1.836-4.8,5.223a15.754,15.754,0,0,0,.28,2.683,2.01,2.01,0,0,1-.845,2.116A7.714,7.714,0,0,1,86.2,86.278c-2.683,0-4.941-1.274-4.941-4.376,0-4.516,6.634-9.6,15.949-9.6,7.619,0,11.006,3.1,12.277,5.081a7.092,7.092,0,0,1,1.129,3.812v20.745c0,2.4.707,2.965,1.554,2.965,1.129,0,2.4-1.836,2.963-4.941l2.4,1.129c-1.271,6.07-4.941,8.61-10.021,8.61-4.376,0-6.774-1.836-7.481-5.505-3.387,3.387-6.914,5.505-10.584,5.505-5.927,0-9.879-3.952-9.879-10.446,0-3.952,1.694-6.21,4.658-7.479,4.8-2.118,11.995-4.234,15.522-6.774V81.477ZM90.855,97.144c0,3.1,1.271,6.492,4.376,6.492,2.258,0,3.245-1.411,3.952-2.823a10.484,10.484,0,0,0,.422-3.387v-9.6c-1.554.989-3.952,2.118-5.787,3.247C92.124,92.205,90.855,93.614,90.855,97.144ZM118.8,73.576l4.516.14V71.458c.142-5.927,1.554-10.3,4.658-13.408a13.947,13.947,0,0,1,10.3-4.234c5.787,0,8.892,2.823,8.892,6.492,0,2.683-2.258,4.516-5.365,4.516A2.667,2.667,0,0,1,138.979,62c0-2.963-.422-5.361-2.538-5.361-1.414,0-2.258,1.269-2.543,3.669-.28,2.258.142,6.492.425,13.124h6.916l-.425,2.823-6.492.425c-.142,2.68-.142,7.339-.142,12.842,0,5.223,0,9.879.142,13.548.142,1.836.425,2.54,1.976,2.683a37.626,37.626,0,0,0,3.812.28l-.287,2.4c-2.68,0-6.914-.282-10.584-.282-3.812,0-8.328.282-10.868.282l.142-2.4c3.669-.14,4.234-.565,4.376-2.116.28-2.4.28-6.07.28-11.008V76.539l-4.8-.282.422-2.683Z" transform="translate(11.323 11.243)" fill="#fec63e"/>
        <path id="Path_9" data-name="Path 9" d="M92.666,44.562l-.285,2.68-8.608.565c0,2.965-.142,7.339-.142,13.266,0,6.21,0,10.444.285,12.984.14,1.836.845,2.683,2.258,2.683,2.963,0,4.8-3.247,5.5-6.21h1.129l.989,3.245c-1.694,4.094-5.93,6.916-12.139,6.916-3.387,0-6.35-1.129-7.761-2.823a7.775,7.775,0,0,1-1.411-5.081c0-5.787.282-18.771.282-24.981l-4.516-.425.282-2.68h4.234c.142-2.683.142-5.787.142-8.61A39,39,0,0,0,83.492,32l.847.142q-.37,6.273-.425,12.559h8.752v-.142Z" transform="translate(85.863 40.258)" fill="#fec63e"/>
        <path id="Path_10" data-name="Path 10" d="M214.516,11.29V128.71H11.29V11.29ZM225.806,0H0V140H225.806Z" fill="#fec63e"/>
      </g>
    </g>
  </g>
</svg>
